<?xml version="1.0" encoding="UTF-8"?>
<svg xmlns="http://www.w3.org/2000/svg" xmlns:xlink="http://www.w3.org/1999/xlink" width="128px" height="128px" viewBox="0 0 128 128" version="1.1">
<g id="surface1">
<path style=" stroke:none;fill-rule:evenodd;fill:rgb(76.47059%,61.960787%,43.921569%);fill-opacity:1;" d="M -0.0585938 -0.0585938 C 42.609375 -0.0585938 85.277344 -0.0585938 127.941406 -0.0585938 C 127.941406 42.609375 127.941406 85.277344 127.941406 127.941406 C 85.277344 127.941406 42.609375 127.941406 -0.0585938 127.941406 C -0.0585938 85.277344 -0.0585938 42.609375 -0.0585938 -0.0585938 Z M -0.0585938 -0.0585938 "/>
<path style=" stroke:none;fill-rule:evenodd;fill:rgb(0.784314%,0.392157%,0.392157%);fill-opacity:1;" d="M 57.769531 37.886719 C 57.734375 43.105469 57.769531 48.324219 57.886719 53.542969 C 57.957031 53.527344 57.992188 53.492188 58 53.429688 C 63.273438 48.097656 68.566406 42.785156 73.886719 37.484375 C 74.039062 37.410156 74.191406 37.332031 74.34375 37.257812 C 77.808594 37.179688 81.277344 37.179688 84.742188 37.257812 C 84.992188 37.351562 85.160156 37.523438 85.257812 37.769531 C 85.332031 55.257812 85.332031 72.742188 85.257812 90.230469 C 85.167969 90.433594 85.035156 90.605469 84.855469 90.742188 C 81.390625 90.820312 77.921875 90.820312 74.457031 90.742188 C 74.265625 90.628906 74.078125 90.515625 73.886719 90.398438 C 68.574219 84.917969 63.257812 79.453125 57.941406 74 C 57.90625 79.410156 57.867188 84.820312 57.828125 90.230469 C 57.738281 90.433594 57.605469 90.605469 57.429688 90.742188 C 52.09375 90.820312 46.761719 90.820312 41.429688 90.742188 C 41.265625 90.691406 41.132812 90.59375 41.027344 90.457031 C 40.953125 72.855469 40.953125 55.257812 41.027344 37.65625 C 41.070312 37.550781 41.128906 37.457031 41.199219 37.371094 C 46.609375 37.296875 52.019531 37.296875 57.429688 37.371094 C 57.699219 37.4375 57.8125 37.609375 57.769531 37.886719 Z M 57.769531 37.886719 "/>
<path style=" stroke:none;fill-rule:evenodd;fill:rgb(94.509804%,76.862746%,55.29412%);fill-opacity:1;" d="M 53.542969 64.628906 C 53.535156 64.566406 53.496094 64.527344 53.429688 64.515625 C 53.3125 71.753906 53.277344 78.988281 53.3125 86.230469 C 53.199219 86.230469 53.085938 86.230469 52.972656 86.230469 C 50.457031 86.230469 47.941406 86.230469 45.429688 86.230469 C 45.429688 71.410156 45.429688 56.589844 45.429688 41.769531 C 48.058594 41.769531 50.6875 41.769531 53.3125 41.769531 C 53.3125 47.714844 53.3125 53.65625 53.3125 59.601562 C 54.820312 59.636719 56.304688 59.597656 57.769531 59.484375 C 63.796875 53.632812 69.777344 47.707031 75.714844 41.714844 C 77.429688 41.65625 79.140625 41.636719 80.855469 41.65625 C 80.855469 56.550781 80.855469 71.449219 80.855469 86.34375 C 79.027344 86.363281 77.199219 86.34375 75.371094 86.285156 C 68.136719 78.992188 60.859375 71.773438 53.542969 64.628906 Z M 53.542969 64.628906 "/>
<path style=" stroke:none;fill-rule:evenodd;fill:rgb(19.607843%,14.117648%,10.196079%);fill-opacity:1;" d="M 57.769531 37.886719 C 57.847656 43.066406 57.921875 48.246094 58 53.429688 C 57.992188 53.492188 57.957031 53.527344 57.886719 53.542969 C 57.769531 48.324219 57.734375 43.105469 57.769531 37.886719 Z M 57.769531 37.886719 "/>
<path style=" stroke:none;fill-rule:evenodd;fill:rgb(81.960785%,65.490198%,47.843137%);fill-opacity:1;" d="M 40.398438 37.65625 C 40.566406 37.753906 40.664062 37.90625 40.6875 38.113281 C 40.722656 37.960938 40.761719 37.808594 40.800781 37.65625 C 40.875 54.953125 40.875 72.246094 40.800781 89.542969 C 40.78125 72.4375 40.722656 55.332031 40.628906 38.230469 C 40.433594 38.09375 40.355469 37.90625 40.398438 37.65625 Z M 40.398438 37.65625 "/>
<path style=" stroke:none;fill-rule:evenodd;fill:rgb(52.941179%,42.745098%,29.411766%);fill-opacity:1;" d="M 53.3125 41.769531 C 53.429688 47.65625 53.464844 53.5625 53.429688 59.484375 C 54.875 59.484375 56.324219 59.484375 57.769531 59.484375 C 56.304688 59.597656 54.820312 59.636719 53.3125 59.601562 C 53.3125 53.65625 53.3125 47.714844 53.3125 41.769531 Z M 53.3125 41.769531 "/>
<path style=" stroke:none;fill-rule:evenodd;fill:rgb(1.176471%,0.784314%,0.784314%);fill-opacity:1;" d="M 56.628906 63.027344 C 57.5625 62.953125 58.511719 62.914062 59.484375 62.914062 C 60.523438 62.898438 61.554688 62.957031 62.570312 63.085938 C 67.585938 68.027344 72.519531 73.035156 77.371094 78.113281 C 77.464844 79.792969 77.449219 81.46875 77.3125 83.144531 C 71.226562 77.1875 65.171875 71.226562 59.144531 65.257812 C 58.320312 64.492188 57.480469 63.746094 56.628906 63.027344 Z M 56.628906 63.027344 "/>
<path style=" stroke:none;fill-rule:evenodd;fill:rgb(63.529414%,52.549022%,36.078432%);fill-opacity:1;" d="M 53.542969 64.628906 C 53.429688 71.847656 53.390625 79.085938 53.429688 86.34375 C 53.277344 86.34375 53.125 86.34375 52.972656 86.34375 C 52.972656 86.304688 52.972656 86.265625 52.972656 86.230469 C 53.085938 86.230469 53.199219 86.230469 53.3125 86.230469 C 53.277344 78.988281 53.3125 71.753906 53.429688 64.515625 C 53.496094 64.527344 53.535156 64.566406 53.542969 64.628906 Z M 53.542969 64.628906 "/>
<path style=" stroke:none;fill-rule:evenodd;fill:rgb(64.313728%,51.372552%,36.862746%);fill-opacity:1;" d="M 45.429688 41.769531 C 45.429688 56.589844 45.429688 71.410156 45.429688 86.230469 C 47.941406 86.230469 50.457031 86.230469 52.972656 86.230469 C 52.972656 86.265625 52.972656 86.304688 52.972656 86.34375 C 50.417969 86.34375 47.867188 86.34375 45.3125 86.34375 C 45.277344 71.464844 45.3125 56.609375 45.429688 41.769531 Z M 45.429688 41.769531 "/>
</g>
</svg>
